# xmcd
#
# Track frame offsets: 
#        150
#        21540
#        38890
#        55105
#        70665
#        95860
#        117972
#        142330
#        163335
#        183580
#        205000
#        228100
#
# Disc length: 3244 seconds
#
# Revision: 1
# Processed by: cddbd v1.5.2PL0 Copyright (c) Steve Scherf et al.
# Submitted via: ExactAudioCopy v0.95a5
#
DISCID=b10caa0c
DTITLE=Blues Company - Then And Now
DYEAR=1993
DGENRE=Blues
TTITLE0=Red Blood
TTITLE1=Hey Little Girl
TTITLE2=Invitation To The Blues
TTITLE3=Blues Is My Middle Name
TTITLE4=747
TTITLE5=I Don't Know
TTITLE6=Crippled Mind
TTITLE7=Rattlesnake Blues
TTITLE8=I Just Can't Keep From Cryin
TTITLE9=She's Gone
TTITLE10=The Blues Is Allright
TTITLE11=Having A Ball
EXTD=
EXTT0=
EXTT1=
EXTT2=
EXTT3=
EXTT4=
EXTT5=
EXTT6=
EXTT7=
EXTT8=
EXTT9=
EXTT10=
EXTT11=
PLAYORDER=
